<?xml version="1.0" encoding="utf-8"?>
<!-- Generator: Adobe Illustrator 16.0.0, SVG Export Plug-In . SVG Version: 6.00 Build 0)  -->
<!DOCTYPE svg PUBLIC "-//W3C//DTD SVG 1.1//EN" "http://www.w3.org/Graphics/SVG/1.1/DTD/svg11.dtd">
<svg version="1.1" id="Layer_1" xmlns="http://www.w3.org/2000/svg" xmlns:xlink="http://www.w3.org/1999/xlink" x="0px" y="0px"
	 width="336.871px" height="66px" viewBox="0 0 336.871 66" enable-background="new 0 0 336.871 66" xml:space="preserve">
<g>
	<path d="M88.818,18.714h13.035c6.303,0,12.463,1.719,12.463,8.833c0,3.247-1.814,6.159-3.867,7.401
		c2.863,1.289,5.204,3.533,5.204,8.117c0,7.449-5.874,10.266-12.94,10.266H88.818V18.714z M94.883,33.182h7.544
		c3.533,0,5.729-1.575,5.729-4.966c0-3.057-2.291-4.631-5.729-4.631h-7.544V33.182z M94.883,48.461h8.068
		c4.298,0,6.447-1.958,6.447-5.396c0-3.533-2.149-5.253-6.781-5.253h-7.734V48.461z"/>
	<path d="M134.178,33.421c-0.955-0.096-1.862-0.144-2.723-0.144c-3.581,0-5.634,1.432-5.634,6.589v13.465h-5.682V27.643h5.586v4.585
		c1.386-2.866,3.868-4.585,6.972-4.633c0.43,0,1.051,0.048,1.48,0.096V33.421z"/>
	<path d="M135.48,46.265c0-6.398,7.878-8.021,17.283-8.978v-0.477c0-4.394-2.53-5.73-5.348-5.73c-2.864,0-5.013,1.528-5.156,4.632
		h-5.586c0.381-5.253,4.727-8.834,10.934-8.834c6.16,0,10.982,2.818,10.838,11.03c0,1.289-0.094,4.297-0.094,6.637
		c0,3.247,0.286,6.638,0.764,8.786h-5.205c-0.191-1.098-0.383-1.719-0.477-3.485c-1.625,2.769-4.68,4.106-8.453,4.106
		C139.395,53.952,135.48,50.943,135.48,46.265z M152.908,41.251c-8.117,0.765-11.412,1.91-11.412,4.87
		c0,2.244,1.862,3.581,4.727,3.581c4.202,0,6.686-2.149,6.686-6.493V41.251z"/>
	<path d="M169.173,31.224c1.48-2.673,4.202-4.154,7.783-4.154c6.207,0,8.738,4.011,8.738,10.122v16.14h-5.683V38.577
		c0-3.485-0.525-6.877-4.87-6.877s-5.969,3.344-5.969,7.975v13.656h-5.682V27.643h5.682V31.224z"/>
	<path d="M208.152,18.714h5.682v34.617h-5.682v-3.39c-1.528,2.529-4.203,4.011-7.64,4.011c-6.064,0-11.174-5.204-11.174-13.465
		c0-8.214,5.109-13.418,11.174-13.418c3.437,0,6.111,1.481,7.64,4.011V18.714z M201.754,31.7c-3.772,0-6.494,3.392-6.494,8.787
		c0,5.442,2.722,8.834,6.494,8.834c3.725,0,6.637-2.914,6.637-8.834C208.391,34.566,205.479,31.7,201.754,31.7z"/>
	<path d="M224.962,27.643v3.438c1.528-2.529,4.202-4.011,7.64-4.011c6.255,0,11.03,5.204,11.03,13.418
		c0,8.261-4.775,13.465-11.03,13.465c-3.438,0-6.111-1.481-7.64-4.011v11.745h-5.682V27.643H224.962z M231.36,49.321
		c3.963,0,6.351-3.392,6.351-8.834c0-5.396-2.388-8.787-6.351-8.787c-3.725,0-6.637,2.866-6.637,8.787
		C224.724,46.407,227.636,49.321,231.36,49.321z"/>
	<path d="M261.656,33.421c-0.956-0.096-1.862-0.144-2.723-0.144c-3.581,0-5.635,1.432-5.635,6.589v13.465h-5.682V27.643h5.586v4.585
		c1.385-2.866,3.868-4.585,6.971-4.633c0.431,0,1.051,0.048,1.482,0.096V33.421z"/>
	<path d="M268.734,42.109c0.383,4.776,3.725,7.116,6.97,7.116c2.962,0,5.302-1.194,6.304-3.581h5.587
		c-1.194,4.105-5.013,8.308-11.649,8.308c-8.261,0-12.989-6.304-12.989-13.657c0-7.734,5.301-13.226,12.606-13.226
		c7.878,0,12.796,6.397,12.319,15.04H268.734z M268.734,37.956h13.369c-0.143-4.01-3.199-6.445-6.541-6.445
		C272.888,31.511,269.213,33.086,268.734,37.956z"/>
	<path d="M306.491,34.662c-0.62-2.341-2.769-3.247-5.633-3.247c-2.482,0-4.774,1.098-4.774,2.816s1.241,2.627,3.438,3.056
		l3.629,0.717c5.203,1.002,9.167,2.626,9.167,7.641c0,5.347-5.062,8.308-10.888,8.308c-6.302,0-10.503-3.581-11.124-8.451h5.537
		c0.527,2.626,2.438,4.153,5.778,4.153c2.962,0,5.158-1.241,5.158-3.343c0-2.101-1.91-3.057-4.441-3.533l-3.866-0.763
		c-4.346-0.86-7.736-2.818-7.736-7.497c0-4.537,4.87-7.449,10.457-7.449c5.014,0,9.597,2.436,10.648,7.593H306.491z"/>
	<path d="M331.047,34.662c-0.621-2.341-2.771-3.247-5.635-3.247c-2.483,0-4.774,1.098-4.774,2.816s1.241,2.627,3.438,3.056
		l3.628,0.717c5.206,1.002,9.168,2.626,9.168,7.641c0,5.347-5.062,8.308-10.887,8.308c-6.303,0-10.504-3.581-11.123-8.451h5.537
		c0.524,2.626,2.435,4.153,5.778,4.153c2.96,0,5.157-1.241,5.157-3.343c0-2.101-1.912-3.057-4.441-3.533l-3.868-0.763
		c-4.345-0.86-7.734-2.818-7.734-7.497c0-4.537,4.87-7.449,10.457-7.449c5.013,0,9.597,2.436,10.646,7.593H331.047z"/>
</g>
<g>
	<path fill="#EA1F72" d="M0,0v62.266c0,1.979,1.62,3.6,3.6,3.6h19.729c0-12.145,4.027-23.052,9.604-32.332C20.388,12.65,0,0,0,0z"/>
	<path fill="#05B5E5" d="M32.933,33.533c5.576,9.28,9.604,20.188,9.604,32.332c11.352,0,19.729,0,19.729,0
		c1.979,0,3.6-1.621,3.6-3.6V0C65.865,0,45.478,12.65,32.933,33.533z"/>
	<path fill="#4807A5" d="M23.329,65.865h15.607c0.99,0,1.484,0,1.484,0c0.701,0,1.406,0,2.115,0c0-12.145-4.027-23.052-9.604-32.332
		C27.356,42.813,23.329,53.721,23.329,65.865z"/>
</g>
</svg>
