<?xml version="1.0" encoding="utf-8"?>
<!-- Generator: Adobe Illustrator 16.0.0, SVG Export Plug-In . SVG Version: 6.00 Build 0)  -->
<!DOCTYPE svg PUBLIC "-//W3C//DTD SVG 1.1//EN" "http://www.w3.org/Graphics/SVG/1.1/DTD/svg11.dtd">
<svg version="1.1" id="Layer_1" xmlns="http://www.w3.org/2000/svg" xmlns:xlink="http://www.w3.org/1999/xlink" x="0px" y="0px"
	 width="96px" height="96px" viewBox="0 0 96 96" enable-background="new 0 0 96 96" xml:space="preserve">
<g>
	<path fill="#EA1F72" d="M0,0v90.754C0,93.638,2.361,96,5.246,96h28.757c0-17.701,5.87-33.599,13.997-47.125C29.716,18.438,0,0,0,0z
		"/>
	<path fill="#05B5E5" d="M48,48.875C56.127,62.401,61.997,78.299,61.997,96c16.545,0,28.757,0,28.757,0
		C93.639,96,96,93.638,96,90.754V0C96,0,66.284,18.438,48,48.875z"/>
	<path fill="#4807A5" d="M34.003,96h22.748c1.443,0,2.163,0,2.163,0c1.022,0,2.05,0,3.083,0c0-17.701-5.87-33.599-13.997-47.125
		C39.873,62.401,34.003,78.299,34.003,96z"/>
</g>
</svg>
