<svg viewBox="0 0 100 20" xmlns="http://www.w3.org/2000/svg"><g fill="#231f20"><path d="m4 15.46h-3.8a.2.2 0 0 1 -.2-.22.24.24 0 0 1 .21-.24c.36-.08.72-.19 1.08-.29a1 1 0 0 1 .23-.05c.21 0 .28-.12.27-.31s0-.41 0-.61q0-5 0-10.08c0-.26-.06-.31-.31-.36s-.63-.2-.95-.3l-.37-.07c-.16-.04-.16-.18-.16-.31s.11-.14.21-.14h4.63 2.49a7.91 7.91 0 0 1 1.48.22 5.21 5.21 0 0 1 1.36.54 2.28 2.28 0 0 1 1.19 2 2.61 2.61 0 0 1 -1.21 2.42 3.41 3.41 0 0 1 -1.28.58l-.76.16a.65.65 0 0 0 -.18.12c.06 0 .13.12.19.12a4.36 4.36 0 0 1 1.2.23 3.46 3.46 0 0 1 2.45 2.13 2.29 2.29 0 0 1 .09.82 5 5 0 0 1 -.14 1.13 3 3 0 0 1 -1.57 1.86 5.67 5.67 0 0 1 -1.5.5 21.54 21.54 0 0 1 -3.82.17c-.28 0-.55 0-.83 0zm.86-3.64v2.57c0 .16.06.25.23.25a1.16 1.16 0 0 1 .29 0 2.72 2.72 0 0 0 1.48 0 1.92 1.92 0 0 0 1.28-1 3.64 3.64 0 0 0 .16-3.06 2.3 2.3 0 0 0 -1.09-1.18 2.82 2.82 0 0 0 -1.44-.4c-.23 0-.46 0-.69 0s-.22.06-.22.22v2.61zm0-6v2.31c0 .25 0 .29.28.29a3.86 3.86 0 0 0 1.31-.14 5.69 5.69 0 0 0 .76-.28 2.25 2.25 0 0 0 1.09-1.85 2.81 2.81 0 0 0 -.3-1.83 2.22 2.22 0 0 0 -1.62-1 11.14 11.14 0 0 0 -1.3-.08c-.17 0-.21.11-.21.25q-.01 1.12-.01 2.3z"/><path d="m52.37 7.34v6.46c0 .32.06.52.38.61a4.44 4.44 0 0 1 .68.25c.12.06.3.16.31.25s-.19.18-.33.21l-1.56.34-1.06.18a4.56 4.56 0 0 0 -.5.13c-.21.07-.32 0-.35-.2s0-.46-.08-.69a.31.31 0 0 0 -.1-.19s-.14 0-.18.07a3.22 3.22 0 0 1 -1.4.82 4.32 4.32 0 0 1 -1.18.22 4.26 4.26 0 0 1 -1.2-.2 3.41 3.41 0 0 1 -2.17-1.73 4.83 4.83 0 0 1 -.62-2.5 8.37 8.37 0 0 1 .1-1.51 4.81 4.81 0 0 1 1.8-2.86 5.34 5.34 0 0 1 1.32-.73 6.48 6.48 0 0 1 2.7-.28 3.69 3.69 0 0 1 .54.12c.21 0 .26 0 .26-.22 0-1 0-2 0-3a.41.41 0 0 0 -.13-.28c-.34-.27-.7-.51-1-.78a.94.94 0 0 1 -.16-.23 1 1 0 0 1 .23-.14l1.63-.46 1.43-.47.47-.14c.14 0 .16.06.17.15s0 .37 0 .55q0 3.12 0 6.25zm-2.63 3.44c0-.88 0-1.77 0-2.65a1.07 1.07 0 0 0 -.47-1l-.11-.09a1.67 1.67 0 0 0 -1.05-.44 1.61 1.61 0 0 0 -1.37.56 3.43 3.43 0 0 0 -.69 1.35 7.72 7.72 0 0 0 -.26 2 6.52 6.52 0 0 0 .1 1.05 3.87 3.87 0 0 0 .55 1.65 2.16 2.16 0 0 0 1.33 1 3.77 3.77 0 0 0 1.23 0 1.77 1.77 0 0 0 .63-.31.28.28 0 0 0 .1-.21c.01-.92.01-1.91.01-2.91z"/><path d="m55.29 13.36c0-1.74 0-3.48 0-5.22a.42.42 0 0 0 -.13-.28c-.33-.28-.67-.53-1-.8-.07-.06-.16-.15-.16-.22s.11-.14.18-.16c.35-.1.71-.18 1.07-.26l.84-.19 1.37-.34c.22-.05.28 0 .27.22s0 .64 0 1c0 0 0 .12.06.13a.19.19 0 0 0 .15 0 5.19 5.19 0 0 1 1.69-1 3.6 3.6 0 0 1 1.18-.2 3.22 3.22 0 0 1 3 1.72 5.29 5.29 0 0 1 .59 1.54 6 6 0 0 1 .09 2.15 5.77 5.77 0 0 1 -.49 1.41 4.45 4.45 0 0 1 -1.49 1.86 4.31 4.31 0 0 1 -1.37.73 6.59 6.59 0 0 1 -2.44.35 3 3 0 0 1 -.54-.11c-.24-.07-.35 0-.35.26s0 .36 0 .53v2.13a.28.28 0 0 0 .18.3l.88.32a1.06 1.06 0 0 0 .21 0 .17.17 0 0 1 .17.2c0 .12-.09.16-.2.16h-4.75c-.05 0-.12 0-.15 0s-.13-.11-.13-.17.07-.13.13-.16c.33-.13.66-.24 1-.39a.39.39 0 0 0 .16-.3c0-1.29 0-2.58 0-3.87q-.02-.7-.02-1.34zm2.57-2.53v2.57a1.38 1.38 0 0 0 .55 1.19 1.91 1.91 0 0 0 .83.43 1.57 1.57 0 0 0 1.63-.47 3.45 3.45 0 0 0 .7-1.55 8.82 8.82 0 0 0 .17-2 6 6 0 0 0 -.33-2 2.22 2.22 0 0 0 -2.14-1.53 6.29 6.29 0 0 0 -1.16.12.28.28 0 0 0 -.25.32q0 1.45 0 2.91z"/><path d="m35.2 11.29v3.14a.28.28 0 0 0 .11.21c.21.12.43.23.64.34.06 0 .15.06.18.11a.4.4 0 0 1 .07.26s-.14.1-.22.1h-4.29c-.14 0-.31 0-.32-.18s.13-.24.27-.29.56-.22.83-.35a.28.28 0 0 0 .13-.21c0-1.22 0-2.44 0-3.66 0-.89 0-1.78 0-2.67a.51.51 0 0 0 -.17-.33c-.29-.26-.61-.48-.91-.73-.07-.06-.15-.19-.13-.25a.39.39 0 0 1 .25-.18l1.73-.38c.5-.12 1-.25 1.5-.38.18 0 .21.07.21.19v1.14a.72.72 0 0 0 0 .16.25.25 0 0 0 .07.15s.09 0 .13-.05c.41-.31.8-.65 1.23-.92a3.51 3.51 0 0 1 2-.6h.45a2 2 0 0 1 1.85 1.18 3.39 3.39 0 0 1 .19 1.12c.18 1.79 0 3.58.08 5.37v.85a.27.27 0 0 0 .11.21c.26.13.53.23.79.35a.68.68 0 0 1 .24.15.19.19 0 0 1 -.16.33h-4.33c-.12 0-.26 0-.27-.16a.29.29 0 0 1 .22-.31 4.38 4.38 0 0 0 .67-.33.32.32 0 0 0 .13-.24c0-1.72 0-3.44 0-5.16a2.3 2.3 0 0 0 -.33-1.15 1.1 1.1 0 0 0 -.94-.52 4.43 4.43 0 0 0 -1.85.31c-.15.06-.14.17-.14.29v1.66s0 1 0 1.44z"/><path d="m29.53 10.94v2.63a2.8 2.8 0 0 0 .14.87c.16.46.6.59 1 .69h.13a.32.32 0 0 1 .12.18s-.08.12-.13.14a10.56 10.56 0 0 1 -1.34.33 2.89 2.89 0 0 1 -1.78-.16 1.21 1.21 0 0 1 -.67-.86.89.89 0 0 0 -.1-.21 1.09 1.09 0 0 0 -.18.13 3.1 3.1 0 0 1 -1.21.82 6.28 6.28 0 0 1 -.79.24 2.19 2.19 0 0 1 -.48 0h-.1a2.24 2.24 0 0 1 -1.54-.33 1.74 1.74 0 0 1 -.89-1.27 2.25 2.25 0 0 1 .71-2.21 3.56 3.56 0 0 1 1.3-.72c.33-.11.67-.2 1-.29h.11l1.85-.18c.17 0 .24-.07.24-.25 0-.45 0-.9 0-1.34a2.73 2.73 0 0 0 -.29-1.32 1.48 1.48 0 0 0 -1-.74 5 5 0 0 0 -1.47-.11.72.72 0 0 0 -.16.02.86.86 0 0 0 .1.22 2 2 0 0 1 .55 1.51 1.25 1.25 0 0 1 -.43.84 1.34 1.34 0 0 1 -1.93-.17 1.52 1.52 0 0 1 -.14-1.55 2.45 2.45 0 0 1 1.39-1.25 11.42 11.42 0 0 1 1.31-.49 3.51 3.51 0 0 1 .88-.11 7.14 7.14 0 0 1 2 .07 2.22 2.22 0 0 1 1.67 1.5 2.6 2.6 0 0 1 .13.74v1.32s0 .87 0 1.3zm-2.53 1.76q0-.57 0-1.15a.27.27 0 0 0 -.39-.28 1.53 1.53 0 0 1 -.31.06 2.45 2.45 0 0 0 -1.3.47 1.63 1.63 0 0 0 -.33 2.09 1.23 1.23 0 0 0 1.25.59 4.49 4.49 0 0 0 .7-.26c.29-.11.34-.32.32-.6s.06-.62.06-.92z"/><path d="m80.09 10.35h-2.86c-.14 0-.19.06-.19.19a5.36 5.36 0 0 0 .38 2.38 2.3 2.3 0 0 0 1.42 1.27 5.11 5.11 0 0 0 1.86.11 7.83 7.83 0 0 0 1.3-.3c.27-.06.53-.16.8-.2.09 0 .21.09.3.16a.39.39 0 0 1 -.11.21 8.92 8.92 0 0 1 -1.83 1.07 6.63 6.63 0 0 1 -2.16.56 3.35 3.35 0 0 1 -.86-.09 7.18 7.18 0 0 1 -1-.22 4.87 4.87 0 0 1 -.9-.38 3.94 3.94 0 0 1 -1.82-2.37 6 6 0 0 1 -.23-2 5.11 5.11 0 0 1 1.11-2.94 4.83 4.83 0 0 1 2-1.52 5 5 0 0 1 2.52-.28 3.46 3.46 0 0 1 2.67 1.62 4.19 4.19 0 0 1 .63 2.17v.39s-.09.23-.24.23h-2.79zm-2.31-.63.82-.06.85-.08h1c.19 0 .26-.1.24-.26s-.06-.51-.1-.76a3 3 0 0 0 -.59-1.49 1.43 1.43 0 0 0 -1.35-.47 1.82 1.82 0 0 0 -1 .84 4.21 4.21 0 0 0 -.6 2c0 .16.06.23.22.22z"/><path d="m96.81 5.89 1.92.19a1.19 1.19 0 0 1 .45.15.38.38 0 0 1 .15.26v.71c0 .46 0 .92.05 1.38 0 .12 0 .25-.15.28s-.29.06-.42-.11c-.42-.53-.85-1.06-1.3-1.56a2.07 2.07 0 0 0 -1.08-.57 1.23 1.23 0 0 0 -1.21.6 1.26 1.26 0 0 0 .64 1.78c.45.25.94.43 1.4.66a7.49 7.49 0 0 1 1.87 1 2.34 2.34 0 0 1 .86 1.87 2.82 2.82 0 0 1 -.2 1.21 3 3 0 0 1 -.93 1.16 3.7 3.7 0 0 1 -1.28.64 5.12 5.12 0 0 1 -2.44.14c-.2 0-.41 0-.6-.09l-1-.24-.15-.06c-.34-.11-.32-.11-.33-.48 0-.78 0-1.56-.05-2.35 0 0 0-.12.07-.13a.34.34 0 0 1 .4.08l.42.52a10.72 10.72 0 0 0 1.3 1.46 2.44 2.44 0 0 0 1.5.62 1.29 1.29 0 0 0 1.16-.78 1.32 1.32 0 0 0 -.65-1.74 8.71 8.71 0 0 0 -1.09-.49 10.05 10.05 0 0 1 -2.2-1.13 2.59 2.59 0 0 1 -.66-3.17 2.9 2.9 0 0 1 1.27-1.26 4.62 4.62 0 0 1 2.28-.55z"/><path d="m90.91 7.22q0 .67.06 1.34c0 .12 0 .24-.12.3a.39.39 0 0 1 -.46-.12c-.33-.41-.63-.85-1-1.23a3.29 3.29 0 0 0 -.86-.7 1.21 1.21 0 0 0 -1.76.47 1.1 1.1 0 0 0 .23 1.37 3.25 3.25 0 0 0 1.15.74c.44.18.87.38 1.29.58a8.27 8.27 0 0 1 1.11.58 2.51 2.51 0 0 1 1 1.32 1.73 1.73 0 0 1 .06.45v.63a2.57 2.57 0 0 1 -1.12 2 3.21 3.21 0 0 1 -1.28.63 5.1 5.1 0 0 1 -2.36.14c-.23-.06-.47-.06-.7-.1s-.63-.14-.94-.22c-.07 0-.13-.06-.2-.08-.33-.12-.32-.12-.33-.48 0-.78 0-1.56-.05-2.35 0 0 0-.14.07-.13s.29 0 .38.06a2.49 2.49 0 0 1 .4.49 8.48 8.48 0 0 0 1.52 1.65 1.9 1.9 0 0 0 1.62.43 1.13 1.13 0 0 0 .78-.61 1.27 1.27 0 0 0 -.56-1.84 18.38 18.38 0 0 0 -1.89-.88 4.48 4.48 0 0 1 -1.84-1.25 2.06 2.06 0 0 1 -.5-1.41 4.15 4.15 0 0 1 .15-1 2.7 2.7 0 0 1 1.38-1.51 4 4 0 0 1 2.1-.5c.7 0 1.39.09 2.08.15a1.38 1.38 0 0 1 .48.16.31.31 0 0 1 .11.23v.75z"/><path d="m66.85 11.24c0-1 0-2.1 0-3.14a.55.55 0 0 0 -.2-.33c-.28-.24-.58-.46-.85-.7a.35.35 0 0 1 -.13-.27.37.37 0 0 1 .25-.18l2.08-.52c.38-.09.77-.17 1.15-.24 0 0 .15.1.15.15 0 .47 0 .95-.05 1.42a.85.85 0 0 0 .06.24.89.89 0 0 0 .18-.15 4.06 4.06 0 0 1 1.33-1.24 3 3 0 0 1 1.63-.37 1.39 1.39 0 0 1 1.27 1.28 1.78 1.78 0 0 1 -.29 1.22 1.19 1.19 0 0 1 -.88.52 1.44 1.44 0 0 1 -1.3-.41 3.82 3.82 0 0 1 -.45-.76c-.1-.19-.16-.23-.36-.16a2 2 0 0 0 -.88.61.58.58 0 0 0 -.13.33v5.63c0 .41.07.52.49.62.23.06.46.14.69.22a.25.25 0 0 1 .14.11.35.35 0 0 1 0 .23s-.12.09-.19.09h-1.36-3.2c-.15 0-.36 0-.39-.18s.18-.24.33-.3.56-.23.83-.36a.27.27 0 0 0 .11-.2c0-1.06 0-2.12 0-3.18z"/><path d="m16.91 11.45v3a.29.29 0 0 0 .14.22c.3.13.61.23.92.34h.09s.26.2.26.3-.19.15-.32.15h-4.59c-.14 0-.29 0-.34-.16s.11-.25.3-.32.53-.22.8-.33.15-.15.15-.27q0-3.13 0-6.27a.42.42 0 0 0 -.19-.36c-.29-.22-.59-.45-.86-.69a.34.34 0 0 1 -.11-.28.37.37 0 0 1 .24-.18l2.08-.51 1.17-.25c.13 0 .17.06.17.18 0 .49 0 1-.06 1.48a.47.47 0 0 0 .06.16.52.52 0 0 0 .18-.08l.57-.7a3 3 0 0 1 1.11-.77 2.83 2.83 0 0 1 1.51-.19 1.32 1.32 0 0 1 1 1.08 1.87 1.87 0 0 1 -.14 1.21 1.27 1.27 0 0 1 -1 .72 1.48 1.48 0 0 1 -1.54-.76 4.32 4.32 0 0 1 -.19-.46.2.2 0 0 0 -.3-.13 2.05 2.05 0 0 0 -.94.6.63.63 0 0 0 -.14.35v2.93z"/></g></svg>