<?xml version="1.0" encoding="utf-8"?>
<!-- Generator: Adobe Illustrator 16.0.0, SVG Export Plug-In . SVG Version: 6.00 Build 0)  -->
<!DOCTYPE svg PUBLIC "-//W3C//DTD SVG 1.1//EN" "http://www.w3.org/Graphics/SVG/1.1/DTD/svg11.dtd">
<svg version="1.1" id="Layer_1" xmlns="http://www.w3.org/2000/svg" xmlns:xlink="http://www.w3.org/1999/xlink" x="0px" y="0px"
	 width="315px" height="66px" viewBox="0 0 315 66" enable-background="new 0 0 315 66" xml:space="preserve">
<g>
	<g>
		<path d="M66.069,13.689h13.035c6.303,0,12.463,1.719,12.463,8.833c0,3.247-1.814,6.159-3.867,7.401
			c2.863,1.289,5.204,3.533,5.204,8.117c0,7.449-5.874,10.266-12.94,10.266H66.069V13.689z M72.134,28.157h7.544
			c3.533,0,5.729-1.575,5.729-4.966c0-3.057-2.291-4.631-5.729-4.631h-7.544V28.157z M72.134,43.437h8.068
			c4.298,0,6.447-1.958,6.447-5.396c0-3.533-2.149-5.253-6.781-5.253h-7.734V43.437z"/>
		<path d="M111.429,28.396c-0.955-0.096-1.862-0.144-2.723-0.144c-3.581,0-5.634,1.432-5.634,6.589v13.465h-5.682V22.618h5.586
			v4.585c1.386-2.866,3.868-4.585,6.972-4.633c0.43,0,1.051,0.048,1.48,0.096V28.396z"/>
		<path d="M112.731,41.24c0-6.398,7.878-8.021,17.283-8.978v-0.477c0-4.394-2.53-5.73-5.348-5.73c-2.864,0-5.013,1.528-5.156,4.632
			h-5.586c0.381-5.253,4.727-8.834,10.934-8.834c6.16,0,10.982,2.818,10.838,11.03c0,1.289-0.094,4.297-0.094,6.637
			c0,3.247,0.286,6.638,0.764,8.786h-5.205c-0.191-1.098-0.383-1.719-0.477-3.485c-1.625,2.769-4.68,4.106-8.453,4.106
			C116.646,48.928,112.731,45.919,112.731,41.24z M130.159,36.227c-8.117,0.765-11.412,1.91-11.412,4.87
			c0,2.244,1.862,3.581,4.727,3.581c4.202,0,6.686-2.149,6.686-6.493V36.227z"/>
		<path d="M146.424,26.199c1.48-2.673,4.202-4.154,7.783-4.154c6.207,0,8.738,4.011,8.738,10.122v16.14h-5.683V33.553
			c0-3.485-0.525-6.877-4.87-6.877s-5.969,3.344-5.969,7.975v13.656h-5.682V22.618h5.682V26.199z"/>
		<path d="M185.403,13.689h5.682v34.617h-5.682v-3.39c-1.528,2.529-4.203,4.011-7.64,4.011c-6.064,0-11.174-5.204-11.174-13.465
			c0-8.214,5.109-13.418,11.174-13.418c3.437,0,6.111,1.481,7.64,4.011V13.689z M179.005,26.676c-3.772,0-6.494,3.392-6.494,8.787
			c0,5.442,2.722,8.834,6.494,8.834c3.725,0,6.637-2.914,6.637-8.834C185.642,29.542,182.729,26.676,179.005,26.676z"/>
		<path d="M202.213,22.618v3.438c1.528-2.529,4.202-4.011,7.64-4.011c6.255,0,11.03,5.204,11.03,13.418
			c0,8.261-4.775,13.465-11.03,13.465c-3.438,0-6.111-1.481-7.64-4.011v11.745h-5.682V22.618H202.213z M208.611,44.297
			c3.963,0,6.351-3.392,6.351-8.834c0-5.396-2.388-8.787-6.351-8.787c-3.725,0-6.637,2.866-6.637,8.787
			C201.975,41.383,204.887,44.297,208.611,44.297z"/>
		<path d="M238.907,28.396c-0.956-0.096-1.862-0.144-2.723-0.144c-3.581,0-5.635,1.432-5.635,6.589v13.465h-5.682V22.618h5.586
			v4.585c1.385-2.866,3.868-4.585,6.971-4.633c0.431,0,1.051,0.048,1.482,0.096V28.396z"/>
		<path d="M245.985,37.085c0.383,4.776,3.725,7.116,6.97,7.116c2.962,0,5.302-1.194,6.304-3.581h5.587
			c-1.194,4.105-5.013,8.308-11.649,8.308c-8.261,0-12.989-6.304-12.989-13.657c0-7.734,5.301-13.226,12.606-13.226
			c7.878,0,12.796,6.397,12.319,15.04H245.985z M245.985,32.932h13.369c-0.143-4.01-3.199-6.445-6.541-6.445
			C250.139,26.486,246.464,28.062,245.985,32.932z"/>
		<path d="M283.742,29.638c-0.62-2.341-2.769-3.247-5.633-3.247c-2.482,0-4.774,1.098-4.774,2.816s1.241,2.627,3.438,3.056
			l3.629,0.717c5.203,1.002,9.167,2.626,9.167,7.641c0,5.347-5.062,8.308-10.888,8.308c-6.302,0-10.503-3.581-11.124-8.451h5.537
			c0.527,2.626,2.438,4.153,5.778,4.153c2.962,0,5.158-1.241,5.158-3.343c0-2.101-1.91-3.057-4.441-3.533l-3.866-0.763
			c-4.346-0.86-7.736-2.818-7.736-7.497c0-4.537,4.87-7.449,10.457-7.449c5.014,0,9.597,2.436,10.648,7.593H283.742z"/>
		<path d="M308.298,29.638c-0.621-2.341-2.771-3.247-5.635-3.247c-2.483,0-4.774,1.098-4.774,2.816s1.241,2.627,3.438,3.056
			l3.628,0.717c5.206,1.002,9.168,2.626,9.168,7.641c0,5.347-5.062,8.308-10.887,8.308c-6.303,0-10.504-3.581-11.123-8.451h5.537
			c0.524,2.626,2.435,4.153,5.778,4.153c2.96,0,5.157-1.241,5.157-3.343c0-2.101-1.912-3.057-4.441-3.533l-3.868-0.763
			c-4.345-0.86-7.734-2.818-7.734-7.497c0-4.537,4.87-7.449,10.457-7.449c5.013,0,9.597,2.436,10.646,7.593H308.298z"/>
	</g>
	<g>
		<path fill="none" d="M9,6h0.75C9.496,6,9.248,5.982,9,5.962V6z"/>
		<path fill="none" d="M9,60.038c0.248-0.021,0.496-0.037,0.75-0.037H9V60.038z"/>
		<path fill="#EA1F72" d="M41.51,28.164C39.63,36.096,32.505,42,24,42H0v24h1.273c1.157-3.268,4.14-5.665,7.727-5.962v-0.037h21
			c9.938,0,18-8.062,18-18.001C48,36.438,45.475,31.467,41.51,28.164z"/>
		<path fill="#00ADEE" d="M41.51,28.164C41.828,26.827,42,25.434,42,24c0-9.939-8.061-18-18-18H9V5.962
			C5.413,5.665,2.431,3.268,1.273,0H0v24h30C34.378,24,38.391,25.565,41.51,28.164z"/>
		<path fill="#4807A5" d="M41.51,28.164C38.391,25.565,34.378,24,30,24H9c-4.971,0-9,4.03-9,9s4.029,9,9,9h15
			C32.505,42,39.63,36.096,41.51,28.164z"/>
	</g>
</g>
</svg>
