<?xml version="1.0" encoding="utf-8"?>
<!-- Generator: Adobe Illustrator 16.0.0, SVG Export Plug-In . SVG Version: 6.00 Build 0)  -->
<!DOCTYPE svg PUBLIC "-//W3C//DTD SVG 1.1//EN" "http://www.w3.org/Graphics/SVG/1.1/DTD/svg11.dtd">
<svg version="1.1" id="Layer_1" xmlns="http://www.w3.org/2000/svg" xmlns:xlink="http://www.w3.org/1999/xlink" x="0px" y="0px"
	 width="66px" height="66px" viewBox="-9 0 66 66" enable-background="new -9 0 66 66" xml:space="preserve">
<g>
	<path fill="none" d="M9,6h0.75C9.496,6,9.248,5.982,9,5.962V6z"/>
	<path fill="none" d="M9,60.038c0.248-0.021,0.496-0.037,0.75-0.037H9V60.038z"/>
	<path fill="#EA1F72" d="M41.51,28.164C39.63,36.096,32.505,42,24,42H0v24h1.273C2.43,62.732,5.413,60.335,9,60.038v-0.037h21
		c9.938,0,18-8.062,18-18.001C48,36.438,45.475,31.467,41.51,28.164z"/>
	<path fill="#00ADEE" d="M41.51,28.164C41.828,26.827,42,25.434,42,24c0-9.939-8.061-18-18-18H9V5.962
		C5.413,5.665,2.431,3.268,1.273,0H0v24h30C34.378,24,38.391,25.565,41.51,28.164z"/>
	<path fill="#4807A5" d="M41.51,28.164C38.391,25.565,34.378,24,30,24H9c-4.971,0-9,4.03-9,9s4.029,9,9,9h15
		C32.505,42,39.63,36.096,41.51,28.164z"/>
</g>
</svg>
