<?xml version="1.0" encoding="utf-8"?>
<!-- Generator: Adobe Illustrator 16.0.0, SVG Export Plug-In . SVG Version: 6.00 Build 0)  -->
<!DOCTYPE svg PUBLIC "-//W3C//DTD SVG 1.1//EN" "http://www.w3.org/Graphics/SVG/1.1/DTD/svg11.dtd">
<svg version="1.1" id="Layer_1" xmlns="http://www.w3.org/2000/svg" xmlns:xlink="http://www.w3.org/1999/xlink" x="0px" y="0px"
	 width="230.05px" height="48px" viewBox="0 0 230.05 48" enable-background="new 0 0 230.05 48" xml:space="preserve">
<g>
	<g>
		<polygon fill="#363636" points="12.932,14.416 12.932,26.543 12.992,26.588 21.339,32.651 21.34,32.654 29.688,26.588 
			29.746,26.546 29.746,14.416 21.339,20.524 		"/>
		<polygon fill="#363636" points="34.458,10.99 34.458,23.119 34.458,30.057 34.458,42.184 34.5,42.212 41.62,37.038 41.62,35.258 
			41.62,17.918 41.62,5.789 		"/>
		<polygon fill="#363636" points="1.06,17.92 1.06,35.258 1.06,37.038 8.181,42.212 8.221,42.186 8.221,30.055 8.221,23.119 
			8.221,10.992 1.06,5.791 		"/>
	</g>
</g>
<text transform="matrix(1 0 0 1 49.5234 35.0771)" fill="#363636" font-family="'SuisseIntlTrial-Medium'" font-size="30.1956">Brandpress</text>
</svg>
